<svg xmlns="http://www.w3.org/2000/svg" width="1280" height="1024" viewBox="0 0 1280 1024">
  <defs>
    <style>
      .cls-3,.cls-8{fill:none}.cls-3{stroke:#000}.cls-3,.cls-8{stroke-linecap:round}.cls-3{stroke-miterlimit:10;stroke-width:5px}.cls-8{stroke-linejoin:round;stroke:#c88278;stroke-width:7px}
    </style>
    <linearGradient id="linear-gradient" x1="988.47" y1="582.84" x2="1015.46" y2="45.77" gradientUnits="userSpaceOnUse">
      <stop offset="0" stop-color="#666" stop-opacity=".6"/>
      <stop offset=".36" stop-color="#373737" stop-opacity=".78"/>
      <stop offset=".76" stop-color="#0f0f0f" stop-opacity=".94"/>
      <stop offset="1"/>
    </linearGradient>
  </defs>
  <title>
    bighead-balloon
  </title>
  <g style="isolation:isolate">
    <g id="Layer_2" data-name="Layer 2">
      <g id="Layer_1-2" data-name="Layer 1">
        <g id="head">
          <path d="M806.27 1018a6.51 6.51 0 0 1-6.35-7.9c18.18-82.42 13.46-139.1-14.44-173.24-24-29.31-61.82-38.06-95.23-45.79-33.24-7.68-62-14.32-72-38.67-11.48-27.87-4-45 2-58.79 5.89-13.52 9.79-22.45-3.78-38.31-9.27-10.84-2.4-25.42 5-34.75l-3.61-2.7-.29-.31c-13-13.7-13.65-18.09-10.58-43.46-2.11-1.21-8-2.49-12-3.36-14.22-3.1-35.71-7.78-35.71-27.78 0-14.6 10.63-23.15 19.17-30 5.09-4.1 9.89-8 11.54-12.14a243.3 243.3 0 0 0 8.59-25.21c2.81-9.7 5.72-19.73 18.76-49.68 4.52-10.37.4-14-6.41-19.91-6.62-5.77-15.69-13.68-11.13-29.52 6-20.71 10.61-40.84 15.1-60.31 16.05-69.58 29.92-129.67 93.26-176 53-38.77 114.08-61 156-72.88 45.66-12.92 93.64-20.62 128.33-20.62 9.45 0 17.06.6 22.62 1.8l3.84.83c70.35 15.14 112.81 24.28 150.88 46.72 23.29 13.73 51.08 53.3 72.51 103.28 23.4 54.57 34.7 111 31 154.78-9.93 117.21-36.15 157.6-61.5 196.66-29.46 45.38-57.29 88.25-51 259.64a15 15 0 0 1 0 5.51c-.47 3.78-1.35 10.8-53.52 42.47-27.09 16.45-64.87 37.66-112.29 63-82.72 44.3-169.35 87.7-185.87 95.94a6.59 6.59 0 0 1-2.89.7z" fill="#f0b7a4"/>
          <g id="eye">
            <path class="cls-3" d="M627.63 393.26c3.8 0 38.2 12.57 51.48 19.69 0 0-28.81 12.37-30.84 19-1.9 6.17 2.85 10.44 2.85 10.44"/>
            <path d="M644 395.87s-4.27 18.5 9.61 28.06l24.08-12.41z"/>
            <path class="cls-3" d="M637 395.87s.09-10.2 6.26-10.2c0 0 31.6 10.93 42.7 18.5"/>
          </g>
          <path id="eyebrow" d="M703.7 390.8c-26-10.87-100-37.81-93.38 10.76 0 0-5.69.95-10-14.71s12.81-37 31.16-37.24c15.8-.2 52.62 14 74.72 37.53a2.28 2.28 0 0 1-2.5 3.66z" style="mix-blend-mode:darken" fill="#333" opacity=".8"/>
          <path id="beard" d="M868.91 521.91l-87-15c0 .22-.07.43-.11.65C770 577.81 672 642.09 672 626c0-42.39-64.86-52.5-64.86-52.5s-8.14 31.08 7.92 42.5c32.26 21.34 57.76-38.88 55 70.21-.48 19-37 38.9-29.42.95 1.75-8.73 6.1-32.47-5.69-30.84-11.39 1.9-7.08-1-20.84-2.37 32.84 26.63-16.73 46.82 3.74 96.54C635.41 793 715 784.58 770.7 822.77c38.02-25.12 126.55-92.6 98.21-300.86z" style="mix-blend-mode:darken" fill="#666" opacity=".6"/>
          <g id="nose">
            <path class="cls-3" d="M587.55 556.22c4.27-5.69 10.9-5.06 14.7-3.8 11.14 3.72 15.26 12.79 25.15 10.44 18.52-4.4 22.77-49.86-3.8-52.66-8.65-1.11-13.28.95-19.92 5.22"/>
            <path class="cls-3" d="M642.4 536.57c-3.14 40.52 5.68 42.69 16.31 55.23 3.87 4.56 15.18 16.13 13.28 38.9"/>
          </g>
          <path id="hair" d="M1172.28 100.3c-36.52-21.52-82-30.55-149.63-45.11l-45.84 5.5L769.25 170c-14.38 47.44-19.89 76.55-39 121.07a9.29 9.29 0 0 0 4.12 11.83c12.23 6.61 26 15.23 47.6 34.37a9.3 9.3 0 0 1 3 7.87c-.93 9.55-3.28 19.43-8.07 35.74a9.33 9.33 0 0 0 .63 6.84c15.45 30.35 16.81 45.3 4.35 119.18l87 15c-7.63-49.57-9-106.35 31.72-143.09 94.77-85.55 194.21 58.84 198.62 218.4.94 33.91 35.62 56.26 66.76 42.81h5c25.24-109.69 86.07-94.8 102.3-286.36 8.12-95.19-55.93-226.79-101-253.36z" style="mix-blend-mode:darken" opacity=".9" fill="url(#linear-gradient)"/>
          <g id="ear">
            <path d="M932.21 385.67c11.69-13.76 27.58-34.58 50.53-38.19 117.35-10.94 36 187.87-25.15 194.51-38.43 5.22-34.44-21.69-33.92-22.54" stroke-width="10" stroke-linejoin="round" stroke-linecap="round" stroke="#000" fill="#f0b7a4"/>
            <path class="cls-8" d="M989.85 487.43c32.12-44.81 51.58-97.87 14.47-114.1-31.77-13-85.16 42-14.47 79"/>
            <path class="cls-8" d="M955.69 405.83c12.34 5.69 57.5 19.35 20.88 75-6.8 10.33-19-2.38-32.26 9.49s-19.28-7.73-6.17-13.76c28.94-12.34-3.32-15.66 5.22-26.1 12.58-14 36.5 15.29 37 24.67"/>
          </g>
          <path id="outline" d="M1247.84 196.92c-21.92-51.09-50.64-91.74-75-106.08-38.84-22.94-81.7-32.15-152.64-47.42l-3.84-.83c-19.53-4.2-68.37-2.07-129.42 12.54-49.27 11.8-120.89 35.28-182.3 80.19-29.88 21.86-51 48-66.46 82.19-13.58 30.06-21.12 62.72-29.1 97.29-4.47 19.39-9.1 39.44-15 60-5.61 19.5 6 29.64 13 35.7 6.61 5.76 7.62 6.65 4.85 13-13.19 30.3-16.15 40.52-19 50.41a237.8 237.8 0 0 1-8.41 24.67c-1.07 2.71-5.47 6.25-9.72 9.67-9 7.27-21.41 17.22-21.41 34.69 0 7.8 2.85 18.64 16.43 26 7.57 4.08 16.3 6 24 7.66 2.12.46 4.69 1 6.78 1.57-2.49 22.71-.87 29.18 12.74 43.52v.06c-7 10.87-11.54 25.6-1.38 37.47 11.13 13 8.53 19 2.84 32-6.11 14-14.48 33.25-2 63.46 11.2 27.21 42.76 34.51 76.17 42.23 67.75 15.66 144.53 33.41 105.17 211.91a12.51 12.51 0 0 0 17.78 13.88c16.55-8.27 103.29-51.72 186-96 47.51-25.44 85.39-46.71 112.57-63.21 50.53-30.67 55.42-39.36 56.35-46.84a21.54 21.54 0 0 0 0-7c-6.19-169.09 21.11-211.14 50-255.66 24.56-37.83 52.39-80.7 62.45-199.41 3.79-44.76-7.68-102.22-31.45-157.66zm20.5 156.72C1246.51 611.25 1144 495.49 1155.9 811.46c0 0 .47 0 0 3.79-3 24.33-315.87 181.09-349 197.61a1.5 1.5 0 0 1-2.14-1.67c61.07-276.91-153.38-191.4-181.91-260.7-21.59-52.42 28.23-62.38-2.61-98.44-10.77-12.59 8.54-32.26 8.54-32.26l-7.59-5.69c-11.79-12.42-12.24-15-9-41.28-2.14-9.72-47.92-4.3-47.92-29.88 0-20.4 25.05-26.85 30.36-40.33 12.34-31.31 5.7-25.14 27.28-74.72 11.63-26.71-24.89-23.74-17.31-50.05 27-93.94 27-175.54 106.5-233.65 109.11-79.8 265.55-98.9 302.92-90.85 72.85 15.68 115.19 24.54 153.23 47 45.1 26.53 109.15 158.13 101.09 253.3z"/>
          <path id="hair-top" d="M763 191.05c93.8-36.78 310.87-91.46 426.63-79.36 6-59.49-154.31-150.95-317.32-93.43-73.9 26.07-128.17 54.52-171.33 57.37-113.06 2-133.67 27.09-147.29 70.78a4.9 4.9 0 0 0 6.63 6c13.64-6 30.71-6 38.19.11 15.75 12.84 10 17.08 12.69 40.54 2.45 21.11 26.87 39.42 35.7 26.83 5-7.09 19-34.63 32.26-39.38 18.35-6.6 35.06-9.04 83.84 10.54z"/>
        </g>
        <g id="word-balloon">
          <path id="balloon" d="M477 292.08c0-83.5-105.66-117.5-236-117.5s-236 39-236 117.5 105.66 117.5 236 117.5c15 0 29.59-.4 43.78-1.23C347.12 511.57 447 573.58 447 573.58c-64.3-54.9-98.32-130.15-112.25-170.34C418.44 390.48 477 357.22 477 292.08z" fill="#fff" stroke-width="10" stroke-linejoin="round" stroke-linecap="round" stroke="#000"/>
          <g id="hello">
            <path d="M62.52 308.26c1.44-7.39 3.94-13.15 6-19.3 1-2.88 1.92-5.85 3-8.93 4.48-12.09 8.28-18.23 12.7-18.23s3.93 4.7 3.16 6.81c-.28.77-.57 1.35-1 2.31A80.84 80.84 0 0 0 82.3 280c-.68 1.92-1.92 5.38-.39 5.38a16.28 16.28 0 0 0 1.83-.19c8.44-1.06 16.89-2.5 22.36-2.5 3.94 0 4.61-.19 4.9-.77 2.4-6.62 2.21-9 5-16.79 1.06-3 3.17-5.28 7.2-5.28 6.34 0 4.7 4.51 3.84 6.81-1.34 3.94-2.59 7.68-4 11.71l-.87 2.21c-1.44 4.13-.57 5.38-1.82 8.64-.67 2-2.11 3.94-3.07 5.76a111.47 111.47 0 0 0-4.28 13.56 38.46 38.46 0 0 1-1.24 5 17.54 17.54 0 0 1-3.56 5.76c-1 1.24-2.3 2.78-4.7 2.78-3.93-.19-4.61-3.17-3.36-6.91 1.54-4.13 2.88-8.16 4.42-12.1.76-2.2 1.24-4.12 1.92-6.24a11.29 11.29 0 0 0-3.56-.28c-7.39 0-14.3.86-26.68 3.84a4.79 4.79 0 0 0-.86 1.72c-1.73 4.71-2.21 9.89-3.84 14.5-1.35 3.74-3.56 5.66-6.53 5.66-7.67 0-3.01-10.94-2.49-14.01zM121.08 314.4a160.71 160.71 0 0 1 5.09-17.18c3.55-9.7 8.64-18.63 12.57-27.84 1.83-4.32 7.88-4.51 8.84-4.9 7.48-2 12.09-2 19-2.78a102.38 102.38 0 0 1 12-.86h.42c7.58 0 12.28 1.44 10.65 5.85-2.59 6.91-10.65 7.68-16.13 7.68-3.55.19-7 .67-12 1.25-3.74.48-7.19 1.34-10.75 1.63-3.64.48-4.7.86-5 1.06-2.21 2.59-3.45 5.95-4.51 8.73 12.29-1.44 21.79-4.41 30.81-4.41 2.79 0 6.72 0 9.22 1.44 1.73 1.05 3.36 1.92 2.59 4-1.34 3.55-5.57 4.8-7.77 5.28-9 2.3-17.38 3.74-25.35 5.18-5.18 1-10.94 1.92-14.59 2.31a21.49 21.49 0 0 0-2 6.23c14-.57 26.39-4 41.66-4 1.34 0 2.4.1 3.36.19 1.25.2 3.93.39 3 3.08-2 5.66-9.88 8.54-14.3 9.5a65.77 65.77 0 0 1-15.26 2.88c-8.16.86-16.8 2.5-25.63 2.5-4.19 0-6.78-3.17-5.92-6.82zM185.11 315.74c1.25-3.55 3.84-7.77 5-10.94 3.94-10.75 8.36-21.31 12.2-31.77 1-3 1.82-5.28 2.49-7.2 1.15-3.27 3.84-5.86 6.53-5.86 7.3 0 2.5 9.7 1.06 14.69-1 3-1.92 5.85-3 8.83-1.82 5.09-3.65 9.79-5.47 15-.67 1.82-2.31 4.79-3.46 7.67 3.27 0 5.67-.67 10.18-1.15 8.73-.86 17.28-2 25.24-2 2.88 0 8.45.57 6.24 6.81a8.68 8.68 0 0 1-6.24 4.61c-13.24-.58-40.31 7.49-47.42 7.49-3.15-.03-4.21-3.49-3.35-6.18zm63.89-1.63a33.15 33.15 0 0 1 1.92-5.66c1.92-6.15 2.31-8.16 4.71-14.78 1.82-5.09 3.45-8.36 5.09-12.77 1.44-4 2.59-7.58 3.55-10.37 2.21-5.85 5.28-10.08 9.6-10.08 4 0 4.8 3.27 3.84 5.95-3.56 9.7-6.82 14.69-9.31 21.79-1.16 3-1.64 6-2.69 9.12a51.26 51.26 0 0 0-1.92 5.09c-1.06 2.78-1.63 4.61 1.34 4.61 1.25 0 2.69-.1 4.8-.29 7.58-1.06 16.61-2.69 24.77-2.69 2.69 0 8.64-.09 7.1 4.32-.38.77-.77 1.44-1.06 2-4.79 7.68-12.09 5.85-21.31 7.58-5 1-7.29 1.06-12.76 1.92-4.32.77-8.07 1.83-12.58 1.92-7.16.02-5.53-5.77-5.09-7.66zM310.49 317.76c-3.65-3.65-3.84-6.62-1.54-13.06a49.91 49.91 0 0 1 13.25-19.19c14.59-13.54 31.68-26.11 47.9-26.11 4.32 0 7.3 1.15 8.74 3.26 1.72 2.59 4.7 7.78 5.08 12.86s-2.4 12.58-4.22 17.47a27.82 27.82 0 0 1-10.18 13.54c-16.89 11.33-30.23 16-44.54 16-6.91.03-11.04-1.41-14.49-4.77zm38.3-40.89c-12.58 3.84-24 17.08-26.69 24.28-3 8.26 20.74 6.15 27.17 4.23 4.7-1.06 13.15-3.56 16.61-7.39a25.3 25.3 0 0 0 4.89-8.26c1.92-5.28.29-5.57-1.63-11.42-1.06-2.79-6.62-4.13-9.69-4.13-3.36 0-6.92 1.54-10.66 2.69zM377.88 322.46c2.78-7.77 8.35-10.94 13.15-10.94 4.13 0 4.7 2.21 3.84 4.51-1 2.88-9.79 11.33-13.73 11.33-1.14 0-4.32-2.21-3.26-4.9zm11.81-20.16c.57-8.15 3.64-10.55 5.08-14.59 1.54-3.36 3.46-6.91 5.09-10.27 1.73-3.55 3.36-7.39 5.47-11.23 1.92-2.88 2.6-8.93 11.52-11.13 3.94-1.06 4.61 1.24 4.51 2.3-.09 1.54-1.15 2.69-1.72 3.65-3.36 5.57-5.86 11.52-10.85 19.87-3.07 4.61-4.42 8.93-6.43 12.86-1.44 2.79-1.83 6.05-5.57 8.64a12 12 0 0 1-4.22 2.3c-2.02.58-3.08-.48-2.88-2.4z"/>
          </g>
        </g>
      </g>
    </g>
  </g>
</svg>
