<svg xmlns="http://www.w3.org/2000/svg" width="1080" height="760" viewBox="0 0 1080 760">
  <title>
    desk
  </title>
  <g data-name="Layer 2">
    <path fill="#97d9ef" d="M669.86 608.66h57.86v89.65h-57.86z"/>
    <path fill="#5faac3" d="M336.86 723.37h232.07V760H336.86z"/>
    <path d="M698.14 635.33c-83.36 6.1-25.71 106.35-143.68 106.35" fill="none" stroke="#5faac3" stroke-miterlimit="10" stroke-width="9.64"/>
    <path d="M704.56 649.46H693a5.76 5.76 0 0 1-5.73-5.11l-1.91-16.74a5.77 5.77 0 0 1 5.74-6.42h15.36a5.77 5.77 0 0 1 5.73 6.42l-1.9 16.74a5.78 5.78 0 0 1-5.73 5.11zM372.59 695.09h5a11.62 11.62 0 0 1 11.62 11.62v16.65H361v-16.64a11.62 11.62 0 0 1 11.59-11.63z" fill="#5faac3"/>
    <path d="M375.11 709.23c0-100.57-123.75-3.21-208 0" fill="none" stroke="#5faac3" stroke-miterlimit="10" stroke-width="9.64"/>
    <path d="M424 695.09h5a11.62 11.62 0 0 1 11.62 11.62v16.65h-28.23v-16.64A11.62 11.62 0 0 1 424 695.09z" fill="#5faac3"/>
    <path d="M426.54 709.23c0-255.45-349.08-247.1-349.08-426.4" fill="none" stroke="#5faac3" stroke-miterlimit="10" stroke-width="9.64"/>
    <g>
      <path d="M472.55 695.09h5a11.62 11.62 0 0 1 11.62 11.62v16.65h-28.24v-16.64a11.62 11.62 0 0 1 11.62-11.63z" fill="#5faac3"/>
      <path d="M475.07 709.23C564.43 406.86 199 430.32 298 189" fill="none" stroke="#5faac3" stroke-miterlimit="10" stroke-width="9.64"/>
    </g>
    <g>
      <path d="M524 695.09h5a11.62 11.62 0 0 1 11.62 11.62v16.65h-28.26v-16.64A11.62 11.62 0 0 1 524 695.09z" fill="#5faac3"/>
      <path d="M526.5 709.23c0-294.65 478.61-270.88 478.61-426.4" fill="none" stroke="#5faac3" stroke-miterlimit="10" stroke-width="9.64"/>
    </g>
    <path d="M161.68 608.66C440.68 453.78 451 367.34 448.39 189" fill="none" stroke="#5faac3" stroke-miterlimit="10" stroke-width="9.64"/>
    <g>
      <path fill="#666" d="M115.07 501.33h104.14V760H115.07z"/>
      <path fill="#333" d="M115.07 510.97h104.14V760H115.07z"/>
      <path fill="#afff84" d="M161.68 501.33h10.93v9.64h-10.93z"/>
    </g>
    <g data-name="desk">
      <path fill="#dddfde" d="M0 296.33h1080v53.02H0z"/>
      <path fill="#333" d="M50.79 349.35h35.36V760H50.79zM823.18 349.35h204.43V760H823.18z"/>
      <path fill="#333" stroke="#000" stroke-miterlimit="10" stroke-width="3.86" d="M832.82 485.27h185.14v88.36H832.82zM832.82 573.63h185.14v88.36H832.82zM832.82 662h185.14v88.36H832.82zM832.82 358.99h185.14v63.14H832.82zM832.82 422.13h185.14v63.14H832.82z"/>
      <path d="M970.39 485.43h-90l12.81 12.8a11.15 11.15 0 0 0 7.88 3.26h48.62a11.16 11.16 0 0 0 7.89-3.26zM970.39 574h-90l12.81 12.8a11.16 11.16 0 0 0 7.88 3.27h48.62a11.17 11.17 0 0 0 7.89-3.27zM970.39 662h-90l12.81 12.8a11.15 11.15 0 0 0 7.88 3.26h48.62a11.16 11.16 0 0 0 7.89-3.26zM970.39 422.29h-90l12.81 12.8a11.15 11.15 0 0 0 7.88 3.26h48.62a11.16 11.16 0 0 0 7.89-3.26zM970.39 359.31h-90l12.81 12.8a11.15 11.15 0 0 0 7.88 3.26h48.62a11.16 11.16 0 0 0 7.89-3.26z"/>
    </g>
    <g>
      <rect x="955.95" y="147.88" width="98.33" height="148.45" rx="5" ry="5" fill="#333"/>
      <ellipse cx="1005.12" cy="237.4" rx="37.63" ry="37.61" fill="#fff" stroke="#000" stroke-miterlimit="10" stroke-width="12.86"/>
      <ellipse cx="1005.12" cy="237.4" rx="15.8" ry="15.8" fill="#fff" stroke="#000" stroke-miterlimit="10" stroke-width="3.21"/>
      <ellipse cx="1005.12" cy="175.96" rx="21.82" ry="21.82"/>
      <circle cx="1005.12" cy="175.96" r="7.78" fill="#333"/>
      <path d="M996.34 274.01h17.56v17.55h-17.56z"/>
      <circle cx="1005.12" cy="282.79" r="6.27" fill="#fff"/>
      <g>
        <rect x="28.14" y="147.88" width="98.33" height="148.45" rx="5" ry="5" fill="#333"/>
        <ellipse cx="77.3" cy="237.4" rx="37.63" ry="37.61" fill="#fff" stroke="#000" stroke-miterlimit="10" stroke-width="12.86"/>
        <ellipse cx="77.3" cy="237.4" rx="15.8" ry="15.8" fill="#fff" stroke="#000" stroke-miterlimit="10" stroke-width="3.21"/>
        <ellipse cx="77.3" cy="175.96" rx="21.82" ry="21.82"/>
        <circle cx="77.3" cy="175.96" r="7.78" fill="#333"/>
        <path d="M68.52 274.01h17.56v17.55H68.52z"/>
        <circle cx="77.3" cy="282.79" r="6.27" fill="#fff"/>
      </g>
    </g>
    <g>
      <g fill="#5faac3">
        <path d="M646.07 215.68h205.71v12.85H646.07z"/>
        <path d="M799.71 220.82h25.71v75.51h-25.71zM672.43 220.82h25.71v75.51h-25.71z"/>
        <path d="M793.29 289.9h38.57v6.43h-38.57zM666 289.9h38.57v6.43H666z"/>
      </g>
      <path d="M874.7 203.22H623.16v-152a7.48 7.48 0 0 1 7.48-7.48h236.58a7.48 7.48 0 0 1 7.48 7.48z"/>
      <path d="M595.39 203.22h307.08v5.18a7.28 7.28 0 0 1-7.28 7.28H602.67a7.28 7.28 0 0 1-7.28-7.28v-5.18z" fill="#dddfde"/>
      <path d="M595.47 209.45a7.28 7.28 0 0 0 7.2 6.23h292.52a7.28 7.28 0 0 0 7.2-6.23zM777 207.13h-56.1a3.07 3.07 0 0 1-2.68-2.89h61.42a3.06 3.06 0 0 1-2.64 2.89z" fill="#aaaeb1"/>
      <g>
        <path fill="#163047" d="M632.06 52.66H865.8v141.66H632.06z"/>
        <path fill="#111e2a" d="M646.06 52.72h37.69v141.66h-37.69z"/>
        <path fill="#dddfde" d="M632.06 52H865.8v8.37H632.06z"/>
        <path fill="#111e2a" d="M632.06 60.37H865.8v12.56H632.06z"/>
        <circle cx="639.08" cy="66.65" r="2.79" fill="#f55f57"/>
        <circle cx="648.85" cy="66.65" r="2.79" fill="#f6bc35"/>
        <circle cx="658.62" cy="66.65" r="2.79" fill="#34cd45"/>
      </g>
      <g>
        <path fill="#aafff8" d="M697.7 81.3h27.92v8.37H697.7z"/>
        <path fill="#afff84" d="M733.99 81.3h27.92v8.37h-27.92zM697.7 96.65h55.83v8.37H697.7z"/>
        <path fill="#aafff8" d="M784.24 127.35h55.83v8.37h-55.83z"/>
        <path fill="#fae259" d="M770.28 81.3h62.81v8.37h-62.81zM742.37 158.05h69.79v8.37h-69.79z"/>
        <path fill="#aafff8" d="M761.91 96.65h55.83v8.37h-55.83z"/>
        <path fill="#fae259" d="M697.7 112h8.37v8.37h-8.37zM697.7 173.4h13.96v8.37H697.7z"/>
        <path fill="#afff84" d="M720.04 173.4h8.37v8.37h-8.37zM733.99 127.35h41.87v8.37h-41.87z"/>
        <path fill="#fae259" d="M697.7 127.35h27.92v8.37H697.7z"/>
        <path fill="#afff84" d="M697.7 142.7h60.02v8.37H697.7z"/>
        <path fill="#aafff8" d="M697.7 158.05h36.29v8.37H697.7z"/>
        <path fill="#fae259" d="M805.18 142.7h19.54v8.37h-19.54z"/>
        <path fill="#aafff8" d="M766.1 142.7h30.71v8.37H766.1z"/>
      </g>
    </g>
    <g>
      <g fill="#5faac3">
        <path d="M348.56 189v107.33h48.22V189zm32.15 57.51c0 3.67-3.6 6.64-8 6.64-4.44 0-8-3-8-6.64V220c0-3.66 3.6-6.64 8-6.64 4.44 0 8 3 8 6.64z"/>
        <path data-name="base" d="M312.56 282.83h120.21v13.5H312.56z"/>
      </g>
      <rect x="204.34" y="15.48" width="336.66" height="202.91" rx="6.04" ry="6.04" data-name="back"/>
      <g data-name="screen_bg">
        <path fill="#fff" d="M216.25 26.47h312.83v175.05H216.25z"/>
        <path fill="#606060" d="M216.24 26.47h22.75v175.05h-22.75zM506.33 26.47h22.75v175.05h-22.75z"/>
        <path fill="#dddfde" d="M216.25 26.44h312.83v10.35H216.25z"/>
        <path fill="#393939" d="M216.25 36.78h312.83V52.3H216.25z"/>
        <ellipse cx="225.65" cy="44.54" rx="3.74" ry="3.45" fill="#f55f57"/>
        <ellipse cx="238.77" cy="44.54" rx="3.74" ry="3.45" fill="#f6bc35"/>
        <ellipse cx="251.79" cy="44.54" rx="3.74" ry="3.45" fill="#34cd45"/>
      </g>
      <path fill="#ccc" d="M239 87.18h267v86.76H239z"/>
      <g stroke="#999" stroke-miterlimit="10" stroke-width="1.77">
        <path fill="#b3b3b3" d="M381.37 93.09h112.59v70.79H381.37z"/>
        <path fill="#ccc" d="M381.2 92.91l112.59 70.79M493.79 92.91L381.2 163.7"/>
      </g>
      <circle cx="259.93" cy="68.49" r="8.85" fill="#999"/>
      <g fill="#999">
        <path d="M290.17 73.9v1.71H281V61.37h2V73.9zM298.28 76a6.84 6.84 0 0 1-3.8-1 6.35 6.35 0 0 1-2.37-2.71 9.39 9.39 0 0 1 0-7.54 6.35 6.35 0 0 1 2.37-2.75 6.8 6.8 0 0 1 3.78-1 6.7 6.7 0 0 1 3.82 1 6.4 6.4 0 0 1 2.34 2.76 9.1 9.1 0 0 1 0 7.44A6.32 6.32 0 0 1 302 75a6.69 6.69 0 0 1-3.72 1zm4.93-7.49a6.91 6.91 0 0 0-.62-3 4.81 4.81 0 0 0-1.75-2 4.67 4.67 0 0 0-2.6-.73 4.58 4.58 0 0 0-2.57.74 4.78 4.78 0 0 0-1.74 2 6.83 6.83 0 0 0-.63 3 7.05 7.05 0 0 0 .62 3 4.83 4.83 0 0 0 6.94 2 4.72 4.72 0 0 0 1.74-2 7 7 0 0 0 .61-3.03zM319.69 65.7h-1.86a3.73 3.73 0 0 0-1.44-2.21 4.65 4.65 0 0 0-2.83-.79 4.1 4.1 0 0 0-2.4.73 4.8 4.8 0 0 0-1.66 2 7.12 7.12 0 0 0-.59 3 6.85 6.85 0 0 0 1.2 4.37 4.21 4.21 0 0 0 3.47 1.5 4.63 4.63 0 0 0 3.31-1.17 4.46 4.46 0 0 0 1.24-3.39v-.14h-4.45V68h6.25v7.62h-1.25l-.46-1.85a5 5 0 0 1-2 1.63 6.93 6.93 0 0 1-6.3-.36 5.89 5.89 0 0 1-2.24-2.63 9.71 9.71 0 0 1 .07-7.74 6.28 6.28 0 0 1 5.9-3.66 6.89 6.89 0 0 1 2.83.58 5.64 5.64 0 0 1 2.18 1.66 4.58 4.58 0 0 1 1.03 2.45zM329.13 76a6.84 6.84 0 0 1-3.8-1 6.35 6.35 0 0 1-2.33-2.74 9.39 9.39 0 0 1 0-7.54 6.35 6.35 0 0 1 2.33-2.72 7.54 7.54 0 0 1 7.61 0 6.53 6.53 0 0 1 2.34 2.76 9 9 0 0 1 .77 3.68 8.87 8.87 0 0 1-.8 3.76 6.46 6.46 0 0 1-2.37 2.8 6.74 6.74 0 0 1-3.75 1zm4.94-7.49a6.91 6.91 0 0 0-.63-3 4.74 4.74 0 0 0-1.75-2 4.67 4.67 0 0 0-2.6-.73 4.58 4.58 0 0 0-2.57.74 4.85 4.85 0 0 0-1.74 2 6.83 6.83 0 0 0-.63 3 7.05 7.05 0 0 0 .62 3 4.76 4.76 0 0 0 8.68 0 7 7 0 0 0 .62-3.03z"/>
      </g>
      <path fill="#999" d="M466 64.95h28.33v7.08H466zM430.59 65.13h28.33v7.08h-28.33zM395.18 64.95h28.33v7.08h-28.33zM359.78 65.13h28.33v7.08h-28.33zM251.08 189.37h76.36v8.49h-76.36zM334.52 189.37h76.36v8.49h-76.36zM417.96 189.37h76.36v8.49h-76.36z"/>
      <g fill="#fff">
        <path d="M254.27 149.42l5-56.68h3.28l5 56.68h.06l4.14-56.68H275l-5.84 69.68H266l-5.07-57.75h-.06l-5.13 57.75h-3.14l-5.77-69.68h3.24l4.14 56.68zM283.4 156.5a2.51 2.51 0 0 0 2-1.4 12.26 12.26 0 0 0 1.52-3.74 23.24 23.24 0 0 0 .68-4.85h2.72a45.94 45.94 0 0 1-2.38 12.76c-1.2 3.07-2.77 4.61-4.73 4.61q-2.34 0-4-3.3a29.9 29.9 0 0 1-2.52-9.07 90.7 90.7 0 0 1-.85-13.16q0-12.9 2-20.52t5.73-7.62q3.34 0 5.14 7.76t1.81 21.84H278.7a49.28 49.28 0 0 0 1.19 12.42q1.19 4.28 3.51 4.27zm-.22-38.63q-1.17 0-2.19 2a21 21 0 0 0-1.65 5.53 41.85 41.85 0 0 0-.64 7.58h9q-.38-15.11-4.52-15.11zM293.81 162.42V92.74h2.71v69.68zM306.87 117.87c-1.42 0-2.52 1.74-3.29 5.2a66.68 66.68 0 0 0-1.16 13.93 70.73 70.73 0 0 0 1.12 14.52q1.11 5 3.3 5 1.43 0 2.49-3.15a35.07 35.07 0 0 0 1.37-8.88h2.63a53.21 53.21 0 0 1-2.07 14.22q-1.74 5.19-4.51 5.19-2.19 0-3.83-3.2a30.58 30.58 0 0 1-2.52-9 89.26 89.26 0 0 1-.88-13.3q0-12.81 2-20.48t5.71-7.66c1.73 0 3.14 1.66 4.22 5a49.66 49.66 0 0 1 1.84 13.54h-2.59q-.52-10.92-3.83-10.93zM322.65 163.78c-1.56 0-2.91-1.19-4.06-3.59a34.12 34.12 0 0 1-2.59-9.66 94.24 94.24 0 0 1-.88-13.54 92.83 92.83 0 0 1 .91-13.73 34.12 34.12 0 0 1 2.61-9.56q1.69-3.49 4-3.49c1.57 0 2.92 1.19 4.05 3.59a35 35 0 0 1 2.58 9.7 103.82 103.82 0 0 1 0 27.13 33.68 33.68 0 0 1-2.58 9.66q-1.69 3.5-4.04 3.49zm4.67-26.49a67.94 67.94 0 0 0-1.21-14.17q-1.2-5.53-3.52-5.54c-1.48 0-2.63 1.82-3.44 5.44a65.19 65.19 0 0 0-1.22 14 65.44 65.44 0 0 0 1.22 13.88q1.22 5.53 3.47 5.54t3.49-5.54a64.43 64.43 0 0 0 1.21-13.61zM345 118.46a26.39 26.39 0 0 1 2.37-6.55 3 3 0 0 1 2.44-1.7q2.32 0 3.73 4.51A42.65 42.65 0 0 1 355 126.9v35.52h-2.72v-32.61a42.94 42.94 0 0 0-.69-9c-.46-2-1.23-3-2.3-3-.7 0-1.34.63-1.92 1.9a20.41 20.41 0 0 0-1.37 5 43.72 43.72 0 0 0-.51 6.94v30.67h-2.72v-35.03a28.39 28.39 0 0 0-.66-6.89c-.45-1.68-1.07-2.53-1.87-2.53q-1.92 0-3.09 4.52a48.93 48.93 0 0 0-1.17 11.89v28.14h-2.72v-50.76h2.56v7.19h.06q1.86-8.64 4.88-8.64c.93 0 1.77.66 2.52 2a19.34 19.34 0 0 1 1.72 6.25zM365.77 156.5a2.54 2.54 0 0 0 2-1.4 12.26 12.26 0 0 0 1.51-3.74 23.24 23.24 0 0 0 .68-4.85h2.72a45.21 45.21 0 0 1-2.38 12.76c-1.19 3.07-2.77 4.61-4.72 4.61q-2.35 0-4-3.3a30.48 30.48 0 0 1-2.52-9.07 92.14 92.14 0 0 1-.85-13.16q0-12.9 2-20.52t5.73-7.62q3.33 0 5.14 7.76t1.81 21.84h-11.8a48.81 48.81 0 0 0 1.19 12.42q1.18 4.28 3.49 4.27zm-.21-38.63c-.79 0-1.52.68-2.2 2a21 21 0 0 0-1.65 5.53 42.81 42.81 0 0 0-.63 7.58h9q-.38-15.11-4.52-15.11z"/>
      </g>
      <g>
        <rect x="347.03" width="50.99" height="23.36" rx="7.46" ry="7.46" fill="#333"/>
        <circle cx="360.48" cy="11.68" r="6.37" fill="#666" stroke="#000" stroke-miterlimit="10" stroke-width="3.54"/>
      </g>
    </g>
    <g>
      <path d="M734.15 259.7H535.49a9.37 9.37 0 0 0-6.66 2.78L502 289.57a4 4 0 0 0 2.82 6.76h260a4 4 0 0 0 2.82-6.76l-26.83-27.09a9.37 9.37 0 0 0-6.66-2.78z" fill="#333"/>
      <path fill="#666" d="M533.45 263.2h12l-5.3 6.39h-12.72l6.02-6.39zM548.12 263.2h12l-4.43 6.39h-12.71l5.14-6.39zM562.79 263.2h12.01l-3.56 6.39h-12.72l4.27-6.39zM577.46 263.2h12.01l-2.69 6.39h-12.72l3.4-6.39zM592.14 263.2h12l-1.82 6.39h-12.71l2.53-6.39zM606.81 263.2h12.01l-.95 6.39h-12.72l1.66-6.39zM621.48 263.2h12.01l-.08 6.39h-12.72l.79-6.39zM636.15 263.2h12.01l.79 6.39h-12.72l-.08-6.39zM650.83 263.2h12l1.66 6.39h-12.71l-.95-6.39zM665.5 263.2h12.01l2.53 6.39h-12.72l-1.82-6.39zM680.17 263.2h12.01l3.4 6.39h-12.72l-2.69-6.39zM694.85 263.2h12l4.27 6.39h-12.71l-3.56-6.39zM709.52 263.2h12l5.15 6.39h-12.72l-4.43-6.39zM724.19 263.2h12.01l6.01 6.39h-12.72l-5.3-6.39zM525.49 271.66h12.94l-6.19 7.47h-13.78l7.03-7.47zM541.31 271.66h12.95l-5.18 7.47H535.3l6.01-7.47zM557.14 271.66h12.95l-4.17 7.47h-13.78l5-7.47zM572.96 271.66h12.95l-3.14 7.47h-13.78l3.97-7.47zM588.79 271.66h12.94l-2.12 7.47h-13.78l2.96-7.47zM604.61 271.66h12.95l-1.11 7.47h-13.78l1.94-7.47zM620.43 271.66h12.95l-.09 7.47h-13.78l.92-7.47zM636.26 271.66h12.95l.92 7.47h-13.78l-.09-7.47zM652.09 271.66h12.94l1.94 7.47h-13.78l-1.1-7.47zM667.91 271.66h12.95l2.96 7.47h-13.79l-2.12-7.47zM683.73 271.66h12.95l3.98 7.47h-13.78l-3.15-7.47zM699.56 271.66h12.95l4.99 7.47h-13.78l-4.16-7.47zM715.38 271.66h12.95l6.01 7.47h-13.78l-5.18-7.47zM731.21 271.66h12.94l7.03 7.47H737.4l-6.19-7.47zM516.17 281.56h14.06l-7.34 8.84h-15.03l8.31-8.84zM533.35 281.56h14.05l-6.13 8.84h-15.04l7.12-8.84zM550.52 281.56h14.05l-4.93 8.84h-15.03l5.91-8.84zM567.69 281.56h14.05l-3.72 8.84h-15.03l4.7-8.84zM584.87 281.56h14.04l-2.51 8.84h-15.04l3.51-8.84zM602.04 281.56h14.05l-1.32 8.84h-15.03l2.3-8.84zM619.21 281.56h14.05l-.11 8.84h-15.03l1.09-8.84zM636.38 281.56h14.05l1.1 8.84h-15.04l-.11-8.84zM653.55 281.56h14.06l2.29 8.84h-15.03l-1.32-8.84zM670.73 281.56h14.05l3.5 8.84h-15.03l-2.52-8.84zM687.9 281.56h14.05l4.71 8.84h-15.04l-3.72-8.84zM705.07 281.56h14.05l5.91 8.84H710l-4.93-8.84zM722.25 281.56h14.04l7.12 8.84h-15.03l-6.13-8.84zM739.42 281.56h14.05l8.32 8.84h-15.04l-7.33-8.84z"/>
      <g>
        <path d="M179 202.92h-4l.62-4.78a1.35 1.35 0 0 1 1.41-1.1 1.35 1.35 0 0 1 1.4 1.1z"/>
        <path d="M181.54 274.68h-9.23l1.85-73.58h5.53l1.85 73.58z"/>
        <rect x="175.43" y="249.03" width="3" height="20.45" rx="1.5" ry="1.5" fill="#aaaeb1"/>
        <path d="M177.46 285a.57.57 0 0 1-1.05 0l-1.78-4.5-2.31-5.83h9.22l-2.3 5.83z"/>
        <path fill="#afff84" d="M173.41 277.43h7.05l.42-1.07h-7.89l.42 1.07z"/>
        <path d="M156.62 283.89c5.47-4.51 10.36-7.3 15.18-8.38a1.09 1.09 0 0 1 .69.07c1.16.54 7.67.71 8.86.24a1.05 1.05 0 0 1 .7 0c4.6 1.23 9.45 3.93 14.94 8.09a7 7 0 0 1 2.76 5.53 6.92 6.92 0 0 1-6.92 6.92H161a6.92 6.92 0 0 1-6.92-6.92v-.18a6.92 6.92 0 0 1 2.54-5.37z" fill="#333"/>
      </g>
      <path d="M242.44 288.94h218.73a2 2 0 0 1 2 2 5.38 5.38 0 0 1-5.38 5.38h-212a5.38 5.38 0 0 1-5.38-5.38 2 2 0 0 1 2-2z" fill="#333"/>
      <g fill="#333">
        <path data-name="base" d="M908.49 276.43a67.64 67.64 0 0 1-15.73-4.18 3.42 3.42 0 0 0-1.9-.13 70.34 70.34 0 0 1-14 1.3 3.43 3.43 0 0 0-3.32 4c.78 4.29.09 7.09-2 9.92a6.3 6.3 0 0 0-.28 7.17c.69 1.05 1.3 1.81 1.3 1.81h38.57a16.51 16.51 0 0 0 1.3-1.63 7.91 7.91 0 0 0 1-7.24c-3-8.11-.69-10.03-4.94-11.02z"/>
        <rect x="889.57" y="269.02" width="4.18" height="6.11" rx="1.82" ry="1.82"/>
      </g>
    </g>
  </g>
</svg>
